# ProBuilder 5.0.6
# https://unity3d.com/unity/features/worldbuilding/probuilder
# 29.10.2022 17:37:52

mtllib ./60deg_.mtl
o 60deg 

g 60deg 
v 5.745333 -0.25 4.820907
v 4.820907 -0.25 5.745333
v 5.745333 0.25 4.820907
v 4.820907 0.25 5.745333
v 1.606969 -0.25 1.915111
v 1.915111 -0.25 1.606969
v 1.606969 0.25 1.915111
v 1.915111 0.25 1.606969
v 6.495191 -0.25 3.75
v 6.495191 0.25 3.75
v 2.165064 -0.25 1.25
v 2.165064 0.25 1.25
v 7.047695 -0.25 2.565152
v 7.047695 0.25 2.565152
v 2.349232 -0.25 0.8550506
v 2.349232 0.25 0.8550506
v 7.386058 -0.25 1.302362
v 7.386058 0.25 1.302362
v 2.462019 -0.25 0.4341207
v 2.462019 0.25 0.4341207
v 7.5 -0.25 -6.556708E-07
v 7.5 0.25 -6.556708E-07
v 2.5 -0.25 -2.18557E-07
v 2.5 0.25 -2.18557E-07
v 7.386058 -0.25 -1.302362
v 7.386058 0.25 -1.302362
v 2.462019 -0.25 -0.4341205
v 2.462019 0.25 -0.4341205

vt 0.6536679 -0.25
vt -0.6536679 -0.25
vt 0.6536679 0.25
vt -0.6536679 0.25
vt 0.2178891 -0.25
vt -0.2178891 -0.25
vt 0.2178891 0.25
vt -0.2178891 0.25
vt 4.820907 5.745333
vt 5.745333 4.820907
vt 1.606969 1.915111
vt 1.915111 1.606969
vt -5.745333 4.820907
vt -4.820907 5.745333
vt -1.915111 1.606969
vt -1.606969 1.915111
vt 6.495191 3.75
vt 2.165064 1.25
vt -6.495191 3.75
vt -2.165064 1.25
vt 7.047695 2.565152
vt 2.349232 0.8550506
vt -7.047695 2.565152
vt -2.349232 0.8550506
vt 7.386058 1.302362
vt 2.462019 0.4341207
vt -7.386058 1.302362
vt -2.462019 0.4341207
vt 7.5 -6.556708E-07
vt 2.5 -2.18557E-07
vt -7.5 -6.556708E-07
vt -2.5 -2.18557E-07
vt 7.386058 -1.302362
vt 2.462019 -0.4341205
vt -7.386058 -1.302362
vt -2.462019 -0.4341205
vt -2.5 0.25
vt -7.5 0.25
vt -2.5 -0.25
vt -7.5 -0.25
vt 7.5 0.25
vt 2.5 0.25
vt 7.5 -0.25
vt 2.5 -0.25

vn 0.7660444 0 0.6427878
vn 0.7071068 0 0.7071068
vn -0.7071068 0 -0.7071068
vn -0.7660438 0 -0.6427884
vn 0.8660253 0 0.5000002
vn -0.866025 0 -0.5000007
vn 0.9396927 0 0.3420201
vn -0.9396929 0 -0.3420193
vn 0.9848077 0 0.1736481
vn -0.9848078 0 -0.173648
vn 1 0 -6.731137E-08
vn -1 0 5.983233E-08
vn 0.9961947 0 -0.08715599
vn -0.9961946 0 0.08715671
vn 0 -1 0
vn 0 1 0
vn -0.1736482 0 -0.9848078
vn -0.7660444 0 0.6427876

usemtl ProBuilderDefault
f 3/3/1 4/4/2 2/2/2 1/1/1
f 7/7/3 8/8/4 6/6/4 5/5/3
f 10/3/5 3/4/1 1/2/1 9/1/5
f 8/7/4 12/8/6 11/6/6 6/5/4
f 14/3/7 10/4/5 9/2/5 13/1/7
f 12/7/6 16/8/8 15/6/8 11/5/6
f 18/3/9 14/4/7 13/2/7 17/1/9
f 16/7/8 20/8/10 19/6/10 15/5/8
f 22/3/11 18/4/9 17/2/9 21/1/11
f 20/7/10 24/8/12 23/6/12 19/5/10
f 26/3/13 22/4/11 21/2/11 25/1/13
f 24/7/12 28/8/14 27/6/14 23/5/12
f 5/11/15 6/12/15 1/10/15 2/9/15
f 8/15/16 7/16/16 4/14/16 3/13/16
f 6/12/15 11/18/15 9/17/15 1/10/15
f 12/20/16 8/15/16 3/13/16 10/19/16
f 11/18/15 15/22/15 13/21/15 9/17/15
f 16/24/16 12/20/16 10/19/16 14/23/16
f 15/22/15 19/26/15 17/25/15 13/21/15
f 20/28/16 16/24/16 14/23/16 18/27/16
f 19/26/15 23/30/15 21/29/15 17/25/15
f 24/32/16 20/28/16 18/27/16 22/31/16
f 23/30/15 27/34/15 25/33/15 21/29/15
f 28/36/16 24/32/16 22/31/16 26/35/16
f 25/40/17 27/39/17 28/37/17 26/38/17
f 5/44/18 2/43/18 4/41/18 7/42/18

